solid
 facet normal  1.000000e+00  4.625929e-16  0.000000e+00
   outer loop
     vertex  1.000000e-01  0.000000e+00  1.000000e-01
     vertex  1.000000e-01  0.000000e+00  0.000000e+00
     vertex  1.000000e-01  3.000000e-02  0.000000e+00
   endloop
 endfacet
 facet normal  1.000000e+00  4.625929e-16  0.000000e+00
   outer loop
     vertex  1.000000e-01  3.000000e-02  1.000000e-01
     vertex  1.000000e-01  0.000000e+00  1.000000e-01
     vertex  1.000000e-01  3.000000e-02  0.000000e+00
   endloop
 endfacet
 facet normal  0.000000e+00  1.000000e+00  0.000000e+00
   outer loop
     vertex  1.000000e-01  3.000000e-02  1.000000e-01
     vertex  1.000000e-01  3.000000e-02  0.000000e+00
     vertex  5.000000e-02  3.000000e-02  0.000000e+00
   endloop
 endfacet
 facet normal -0.000000e+00  1.000000e+00  0.000000e+00
   outer loop
     vertex  5.000000e-02  3.000000e-02  1.000000e-01
     vertex  1.000000e-01  3.000000e-02  1.000000e-01
     vertex  5.000000e-02  3.000000e-02  0.000000e+00
   endloop
 endfacet
 facet normal  2.425356e-01  9.701425e-01  0.000000e+00
   outer loop
     vertex  5.000000e-02  3.000000e-02  1.000000e-01
     vertex  5.000000e-02  3.000000e-02  0.000000e+00
     vertex -1.500000e-01  8.000000e-02  0.000000e+00
   endloop
 endfacet
 facet normal  2.425356e-01  9.701425e-01  0.000000e+00
   outer loop
     vertex -1.500000e-01  8.000000e-02  1.000000e-01
     vertex  5.000000e-02  3.000000e-02  1.000000e-01
     vertex -1.500000e-01  8.000000e-02  0.000000e+00
   endloop
 endfacet
 facet normal -2.775558e-16  1.000000e+00  0.000000e+00
   outer loop
     vertex -2.000000e-01  8.000000e-02  1.000000e-01
     vertex -1.500000e-01  8.000000e-02  1.000000e-01
     vertex -1.500000e-01  8.000000e-02  0.000000e+00
   endloop
 endfacet
 facet normal -2.775558e-16  1.000000e+00  0.000000e+00
   outer loop
     vertex -2.000000e-01  8.000000e-02  1.000000e-01
     vertex -1.500000e-01  8.000000e-02  0.000000e+00
     vertex -2.000000e-01  8.000000e-02  0.000000e+00
   endloop
 endfacet
 facet normal -1.000000e+00 -0.000000e+00 -0.000000e+00
   outer loop
     vertex -2.000000e-01  8.000000e-02  1.000000e-01
     vertex -2.000000e-01  8.000000e-02  0.000000e+00
     vertex -2.000000e-01  0.000000e+00  0.000000e+00
   endloop
 endfacet
 facet normal -1.000000e+00  0.000000e+00 -0.000000e+00
   outer loop
     vertex -2.000000e-01  0.000000e+00  1.000000e-01
     vertex -2.000000e-01  8.000000e-02  1.000000e-01
     vertex -2.000000e-01  0.000000e+00  0.000000e+00
   endloop
 endfacet
 facet normal  0.000000e+00 -1.000000e+00  0.000000e+00
   outer loop
     vertex -2.000000e-01  0.000000e+00  1.000000e-01
     vertex -2.000000e-01  0.000000e+00  0.000000e+00
     vertex  1.000000e-01  0.000000e+00  0.000000e+00
   endloop
 endfacet
 facet normal -0.000000e+00 -1.000000e+00 -0.000000e+00
   outer loop
     vertex  1.000000e-01  0.000000e+00  1.000000e-01
     vertex -2.000000e-01  0.000000e+00  1.000000e-01
     vertex  1.000000e-01  0.000000e+00  0.000000e+00
   endloop
 endfacet
 facet normal  0.000000e+00  0.000000e+00 -1.000000e+00
   outer loop
     vertex  5.000000e-02  3.000000e-02  0.000000e+00
     vertex  1.000000e-01  3.000000e-02  0.000000e+00
     vertex  1.000000e-01  0.000000e+00  0.000000e+00
   endloop
 endfacet
 facet normal  0.000000e+00  0.000000e+00 -1.000000e+00
   outer loop
     vertex -2.000000e-01  0.000000e+00  0.000000e+00
     vertex  5.000000e-02  3.000000e-02  0.000000e+00
     vertex  1.000000e-01  0.000000e+00  0.000000e+00
   endloop
 endfacet
 facet normal  0.000000e+00 -0.000000e+00 -1.000000e+00
   outer loop
     vertex -1.500000e-01  8.000000e-02  0.000000e+00
     vertex  5.000000e-02  3.000000e-02  0.000000e+00
     vertex -2.000000e-01  0.000000e+00  0.000000e+00
   endloop
 endfacet
 facet normal  0.000000e+00 -0.000000e+00 -1.000000e+00
   outer loop
     vertex -2.000000e-01  8.000000e-02  0.000000e+00
     vertex -1.500000e-01  8.000000e-02  0.000000e+00
     vertex -2.000000e-01  0.000000e+00  0.000000e+00
   endloop
 endfacet
 facet normal  0.000000e+00  0.000000e+00  1.000000e+00
   outer loop
     vertex  1.000000e-01  0.000000e+00  1.000000e-01
     vertex  1.000000e-01  3.000000e-02  1.000000e-01
     vertex  5.000000e-02  3.000000e-02  1.000000e-01
   endloop
 endfacet
 facet normal  0.000000e+00  0.000000e+00  1.000000e+00
   outer loop
     vertex  1.000000e-01  0.000000e+00  1.000000e-01
     vertex  5.000000e-02  3.000000e-02  1.000000e-01
     vertex -2.000000e-01  0.000000e+00  1.000000e-01
   endloop
 endfacet
 facet normal  0.000000e+00 -0.000000e+00  1.000000e+00
   outer loop
     vertex -2.000000e-01  0.000000e+00  1.000000e-01
     vertex  5.000000e-02  3.000000e-02  1.000000e-01
     vertex -1.500000e-01  8.000000e-02  1.000000e-01
   endloop
 endfacet
 facet normal  0.000000e+00 -0.000000e+00  1.000000e+00
   outer loop
     vertex -2.000000e-01  0.000000e+00  1.000000e-01
     vertex -1.500000e-01  8.000000e-02  1.000000e-01
     vertex -2.000000e-01  8.000000e-02  1.000000e-01
   endloop
 endfacet
endsolid
